<?xml version="1.0" encoding="UTF-8" standalone="no"?>
<!DOCTYPE svg PUBLIC "-//W3C//DTD SVG 1.1//EN"
 "http://www.w3.org/Graphics/SVG/1.1/DTD/svg11.dtd">
<!-- Generated by graphviz version 2.44.1 (20200629.0846)
 -->
<!-- Title: fsm Pages: 1 -->
<svg width="150pt" height="226pt"
 viewBox="0.00 0.00 150.00 226.00" xmlns="http://www.w3.org/2000/svg" xmlns:xlink="http://www.w3.org/1999/xlink">
<g id="graph0" class="graph" transform="scale(1 1) rotate(0) translate(4 222)">
<title>fsm</title>
<polygon fill="white" stroke="transparent" points="-4,4 -4,-222 146,-222 146,4 -4,4"/>
<!-- 0 -->
<g id="node1" class="node">
<title>0</title>
<ellipse fill="none" stroke="black" cx="85" cy="-200" rx="27" ry="18"/>
<text text-anchor="middle" x="85" y="-196.3" font-family="Times New Roman,serif" font-size="14.00">0</text>
</g>
<!-- 1 -->
<g id="node2" class="node">
<title>1</title>
<ellipse fill="none" stroke="black" cx="22" cy="-109" rx="18" ry="18"/>
<ellipse fill="none" stroke="black" cx="22" cy="-109" rx="22" ry="22"/>
<text text-anchor="middle" x="22" y="-105.3" font-family="Times New Roman,serif" font-size="14.00">1</text>
</g>
<!-- 0&#45;&gt;1 -->
<g id="edge1" class="edge">
<title>0&#45;&gt;1</title>
<path fill="none" stroke="black" d="M74.03,-183.5C64.77,-170.42 51.33,-151.44 40.43,-136.04"/>
<polygon fill="black" stroke="black" points="42.99,-133.6 34.36,-127.46 37.28,-137.64 42.99,-133.6"/>
<text text-anchor="middle" x="63.5" y="-152.8" font-family="Times New Roman,serif" font-size="14.00">a</text>
</g>
<!-- 2 -->
<g id="node3" class="node">
<title>2</title>
<ellipse fill="none" stroke="black" cx="64" cy="-18" rx="27" ry="18"/>
<text text-anchor="middle" x="64" y="-14.3" font-family="Times New Roman,serif" font-size="14.00">2</text>
</g>
<!-- 0&#45;&gt;2 -->
<g id="edge2" class="edge">
<title>0&#45;&gt;2</title>
<path fill="none" stroke="black" d="M84.95,-181.84C84.69,-159.79 83.54,-120.38 79,-87 77.13,-73.24 73.92,-58.14 70.94,-45.68"/>
<polygon fill="black" stroke="black" points="74.33,-44.78 68.54,-35.91 67.53,-46.46 74.33,-44.78"/>
<text text-anchor="middle" x="88" y="-105.3" font-family="Times New Roman,serif" font-size="14.00">b</text>
</g>
<!-- 1&#45;&gt;1 -->
<g id="edge4" class="edge">
<title>1&#45;&gt;1</title>
<path fill="none" stroke="black" d="M42.58,-117.37C52.84,-118.53 62,-115.74 62,-109 62,-104.68 58.24,-101.99 52.84,-100.91"/>
<polygon fill="black" stroke="black" points="52.67,-97.41 42.58,-100.63 52.48,-104.4 52.67,-97.41"/>
<text text-anchor="middle" x="66" y="-105.3" font-family="Times New Roman,serif" font-size="14.00">b</text>
</g>
<!-- 1&#45;&gt;2 -->
<g id="edge3" class="edge">
<title>1&#45;&gt;2</title>
<path fill="none" stroke="black" d="M31.11,-88.69C37.23,-75.73 45.35,-58.52 51.99,-44.44"/>
<polygon fill="black" stroke="black" points="55.21,-45.83 56.31,-35.29 48.88,-42.84 55.21,-45.83"/>
<text text-anchor="middle" x="50.5" y="-57.8" font-family="Times New Roman,serif" font-size="14.00">a</text>
</g>
<!-- 2&#45;&gt;2 -->
<g id="edge5" class="edge">
<title>2&#45;&gt;2</title>
<path fill="none" stroke="black" d="M90.79,-21.93C100.78,-22.06 109,-20.75 109,-18 109,-16.28 105.79,-15.13 100.94,-14.53"/>
<polygon fill="black" stroke="black" points="100.94,-11.03 90.79,-14.07 100.63,-18.02 100.94,-11.03"/>
<text text-anchor="middle" x="112.5" y="-14.3" font-family="Times New Roman,serif" font-size="14.00">a</text>
</g>
<!-- 2&#45;&gt;2 -->
<g id="edge6" class="edge">
<title>2&#45;&gt;2</title>
<path fill="none" stroke="black" d="M89.23,-24.94C108.04,-27.37 127,-25.05 127,-18 127,-12.21 114.24,-9.62 99.27,-10.21"/>
<polygon fill="black" stroke="black" points="98.9,-6.73 89.23,-11.06 99.49,-13.7 98.9,-6.73"/>
<text text-anchor="middle" x="131" y="-14.3" font-family="Times New Roman,serif" font-size="14.00">b</text>
</g>
</g>
</svg>
